# xmcd
#
# Track frame offsets: 
#        150
#        19643
#        37643
#        57418
#        74623
#        94368
#        110120
#        127355
#        149480
#        164248
#        190505
#        215815
#        238340
#        261630
#        279955
#
# Disc length: 4036 seconds
#
# Revision: 6
# Processed by: cddbd v1.5.2PL0 Copyright (c) Steve Scherf et al.
# Submitted via: ExactAudioCopy v0.99pb4
#
DISCID=f90fc20f
DTITLE=Van Morrison - Down The Road
DYEAR=2002
DGENRE=Blues
TTITLE0=Down The Road
TTITLE1=Meet Me In The Indian Summer
TTITLE2=Steal My Heart Away
TTITLE3=Hey Mr. DJ
TTITLE4=TalkIs Cheap
TTITLE5=Choppin' Wood
TTITLE6=What Makes The Irish Heart Beat
TTITLE7=All Work And No Play
TTITLE8=Whatever Happened To PJ Proby?
TTITLE9=The Beauty Of Days Gone By
TTITLE10=Georgia On My Mind
TTITLE11=Only A Dream
TTITLE12=Man Has To Struggle
TTITLE13=Evening Shadows
TTITLE14=Fast Train
EXTD=YEAR: 2002
EXTT0=
EXTT1=
EXTT2=
EXTT3=
EXTT4=
EXTT5=
EXTT6=
EXTT7=
EXTT8=
EXTT9=
EXTT10=
EXTT11=
EXTT12=
EXTT13=
EXTT14=
PLAYORDER=
